<?xml version="1.0" encoding="utf-8"?>
<!-- Generator: Adobe Illustrator 19.0.0, SVG Export Plug-In . SVG Version: 6.00 Build 0)  -->
<svg version="1.1" id="图层_1" xmlns="http://www.w3.org/2000/svg" xmlns:xlink="http://www.w3.org/1999/xlink" x="0px" y="0px"
	 viewBox="0 0 60 60" style="enable-background:new 0 0 60 60;" xml:space="preserve">
<g id="XMLID_53_">
	<path id="XMLID_66_" d="M52,18H37c-0.2,0,0,0.3,0,0.4v-1.4c0-1.1-1.4-1.9-2.5-1.9h-9.6c-1.1,0-1.9,0.8-1.9,1.9v1.4
		c0-0.1-0.3-0.3-0.5-0.3h-15C6.3,18,5,19.2,5,20.4v32.1C5,53.7,6.3,55,7.5,55h15c0.2,0,0.5-0.4,0.5-0.5v1.4c0,1.1,0.8,2.1,1.9,2.1
		h9.6c1.1,0,2.5-1,2.5-2.1v-1.4c0,0.1-0.2,0.4-0.1,0.4H52c1.2,0,2-1.3,2-2.5V20.4C54,19.2,53.2,18,52,18z M7.5,20h15
		c0.2,0,0.5,0.1,0.5,0.1V27H8c-0.3,0-1,0.1-1,0.3v-6.9C7,20.3,7.4,20,7.5,20z M22.5,53h-15C7.4,53,7,52.6,7,52.5V28.7
		C7,28.9,7.7,29,8,29h15v23.8C23,52.7,22.7,53,22.5,53z M34.5,56H25V17h9.5L34.5,56z M52,53H36.9c-0.1,0,0.1-0.3,0.1-0.2V20
		c0,0.1-0.2,0,0,0h15c0.1,0,0,0.3,0,0.4V27H38c-0.6,0-1,0.4-1,1s0.4,1,1,1h14v23.5C52,52.6,52.1,53,52,53z"/>
	<path id="XMLID_70_" d="M16.2,14.4c1.2,1.5,2.7,2.7,4.2,3.5c0.1,0.1,0.3,0.1,0.5,0.1c0.4,0,0.7-0.2,0.9-0.5
		c0.3-0.5,0.1-1.1-0.4-1.4c-1.3-0.7-2.5-1.7-3.6-3c-1.3-1.6-2.2-3.4-2.5-5.1C15.1,7.2,15,5.7,16,4.9c1.6-1.3,5.2,0.2,7.8,3.3
		c1.5,1.8,2.4,3.8,2.6,5.6c0.1,0.5,0.5,1,1.1,0.9c0.5-0.1,1-0.5,0.9-1.1c-0.2-2.1-1.3-4.6-3-6.7c-3.4-4.1-8-5.7-10.6-3.6
		c-1.3,1.1-1.8,2.9-1.4,5.1C13.6,10.4,14.7,12.5,16.2,14.4z"/>
	<path id="XMLID_71_" d="M31.9,14.7c0.5,0.1,1-0.4,1.1-0.9c0.2-1.8,1.1-3.8,2.6-5.6c2.5-3.1,6.2-4.7,7.8-3.3
		c1.6,1.3,0.8,5.2-1.8,8.3c-1.1,1.3-2.3,2.4-3.6,3c-0.5,0.3-0.7,0.9-0.4,1.4c0.2,0.3,0.5,0.5,0.9,0.5c0.2,0,0.3,0,0.5-0.1
		c1.5-0.8,3-2,4.2-3.5c3.4-4.1,4-9,1.5-11.1C42.1,1.2,37.4,2.8,34,6.9c-1.7,2.1-2.8,4.5-3,6.7C31,14.1,31.4,14.6,31.9,14.7z"/>
</g>
</svg>
