<?xml version="1.0" encoding="utf-8"?>
<!-- Generator: Adobe Illustrator 19.0.0, SVG Export Plug-In . SVG Version: 6.00 Build 0)  -->
<svg version="1.1" id="图层_1" xmlns="http://www.w3.org/2000/svg" xmlns:xlink="http://www.w3.org/1999/xlink" x="0px" y="0px"
	 viewBox="0 0 85.5 85.5" style="enable-background:new 0 0 85.5 85.5;" xml:space="preserve">
<style type="text/css">
	.st0{fill:#FBB03B;}
</style>
<g id="XMLID_40_">
	<path id="XMLID_61_" class="st0" d="M78.6,22.4l-0.1-0.1c-1.3-1.3-3.1-2.4-5.2-2.4H12.3c-2,0-3.9,1.1-5.2,2.4
		c-1.3,1.3-2.2,3.4-2.2,5.4v24.5v12.2v0c0,2,0.9,3.9,2.2,5.2c1.3,1.3,3.2,2.2,5.2,2.2h61.2c2,0,3.9-0.9,5.2-2.2
		c1.3-1.3,2.2-3.2,2.2-5.2V52.2v0V27.7C80.8,25.7,80,23.7,78.6,22.4z M9,24.2c0.9-0.9,1.9-1.4,3.2-1.4h61.2c1.4,0,2.6,0.5,3.5,1.4
		l0.1,0l0.1,0c0.9,0.9,1.7,2.1,1.7,3.5v23.2h-71V27.7C7.8,26.3,8.1,25.1,9,24.2z M78.8,62.8h-9.3l0.5-0.9l0,0l0.9-1.5l0-0.1l0.8-1.5
		l0,0l0.9-1.5c0.3-0.6,0.1-1.3-0.4-1.6c-0.6-0.3-1.3-0.1-1.6,0.4l-0.9,1.5l0,0l0,0l-0.8,1.5l0,0.1L68,60.7l0,0l0,0l-0.8,1.5l0,0.1
		l-0.3,0.6h-6.6l0.5-0.9l0-0.1l0.8-1.5l0.9-1.5l0,0l0.9-1.5c0.3-0.6,0.1-1.3-0.4-1.6c-0.6-0.3-1.3-0.1-1.6,0.4l-0.9,1.5l0,0l0,0
		l-0.9,1.5l-0.8,1.5l0,0.1l-0.9,1.5l0,0l0,0l-0.3,0.6h-6.6l0.5-0.9l0,0l0.9-1.5l0-0.1l0.8-1.5l0.9-1.5c0.3-0.6,0.1-1.3-0.4-1.6
		c-0.6-0.3-1.3-0.1-1.6,0.4l-0.9,1.5l-0.8,1.5l0,0.1l-0.9,1.5l0,0l0,0l-0.8,1.5l0,0.1l-0.3,0.6h-6.6l0.5-0.9l0,0l0.9-1.5l0-0.1
		l0.8-1.5l0,0l0.9-1.5c0.3-0.6,0.1-1.3-0.4-1.6c-0.6-0.3-1.3-0.1-1.6,0.4l-0.9,1.5l0,0l0,0L41,59.1l0,0.1l-0.9,1.5l0,0l0,0l-0.9,1.5
		l-0.3,0.6h-6.6l0.5-0.9l0-0.1l0.8-1.5l0,0l0.9-1.5l0-0.1l0.8-1.5c0.3-0.6,0.1-1.3-0.4-1.6c-0.6-0.3-1.3-0.1-1.6,0.4l-0.8,1.5l0,0.1
		l-0.9,1.5l0,0l0,0l-0.8,1.5l0,0.1l-0.9,1.5l0,0l0,0l-0.3,0.6h-6.6l0.5-0.9l0,0l0.9-1.5l0-0.1l0.8-1.5l0.9-1.5
		c0.3-0.6,0.1-1.3-0.4-1.6c-0.6-0.3-1.3-0.1-1.6,0.4l-0.9,1.5l-0.8,1.5l0,0.1l-0.9,1.5l0,0l0,0l-0.8,1.5l0,0.1l-0.3,0.6h-6.6
		l0.5-0.9l0-0.1l0.8-1.5l0.9-1.5l0,0l0.9-1.5c0.3-0.6,0.1-1.3-0.4-1.6c-0.6-0.3-1.3-0.1-1.6,0.4l-0.9,1.5l0,0l0,0L13,59.2l-0.8,1.5
		l0,0.1l-0.9,1.5l0,0l0,0l-0.3,0.6h-3v-10h71V62.8z M73.4,68.8H12.3c-1.4,0-2.3-0.3-3.2-1.2c-0.5-0.5-0.8-1.1-1-1.8h70.5
		c-0.3,0.7-0.8,1.2-1.4,1.8C76.3,68.5,74.8,68.8,73.4,68.8z"/>
	<path id="XMLID_66_" class="st0" d="M61.2,36.8H21.5h0c-0.7,0-0.6,0.9-0.6,1.5v6.1v0c0,0.7-0.1,1.3,0.6,1.3h39.7h0
		c0.7,0,1.6-0.7,1.6-1.3v-6.1v0C62.8,37.7,61.8,36.8,61.2,36.8z M60.8,42.8h-38v-3h38V42.8z"/>
	<path id="XMLID_67_" class="st0" d="M12.3,28.8h58.1c0.7,0,1.2-0.8,1.2-1.5c0-0.7-0.5-1.5-1.2-1.5H12.3c-0.7,0-1.2,0.8-1.2,1.5
		C11.1,28,11.6,28.8,12.3,28.8z"/>
</g>
</svg>