<?xml version="1.0" encoding="utf-8"?>
<!-- Generator: Adobe Illustrator 19.0.0, SVG Export Plug-In . SVG Version: 6.00 Build 0)  -->
<svg version="1.1" id="图层_1" xmlns="http://www.w3.org/2000/svg" xmlns:xlink="http://www.w3.org/1999/xlink" x="0px" y="0px"
	 viewBox="0 0 60 60" style="enable-background:new 0 0 60 60;" xml:space="preserve">
<g id="XMLID_53_">
	<path id="XMLID_68_" d="M27.5,6h-19C7.7,6,7,6.7,7,7.5v18C7,26.3,7.7,27,8.5,27h19c0.8,0,1.5-0.7,1.5-1.5v-18C29,6.7,28.3,6,27.5,6
		z M26,24H10V9h16V24z"/>
	<path id="XMLID_71_" d="M52.5,6h-18C33.7,6,33,6.7,33,7.5v18c0,0.8,0.7,1.5,1.5,1.5h18c0.8,0,1.5-0.7,1.5-1.5v-18
		C54,6.7,53.3,6,52.5,6z M51,24H36V9h15V24z"/>
	<path id="XMLID_74_" d="M27.5,33h-19C7.7,33,7,33.7,7,34.5v18C7,53.3,7.7,54,8.5,54h19c0.8,0,1.5-0.7,1.5-1.5v-18
		C29,33.7,28.3,33,27.5,33z M26,51H10V36h16V51z"/>
	<path id="XMLID_77_" d="M52.5,33h-18c-0.8,0-1.5,0.7-1.5,1.5v18c0,0.8,0.7,1.5,1.5,1.5h18c0.8,0,1.5-0.7,1.5-1.5v-18
		C54,33.7,53.3,33,52.5,33z M51,51H36V36h15V51z"/>
</g>
</svg>
