<?xml version="1.0" encoding="utf-8"?>
<!-- Generator: Adobe Illustrator 19.0.0, SVG Export Plug-In . SVG Version: 6.00 Build 0)  -->
<svg version="1.1" id="图层_1" xmlns="http://www.w3.org/2000/svg" xmlns:xlink="http://www.w3.org/1999/xlink" x="0px" y="0px"
	 viewBox="0 0 40 40" style="enable-background:new 0 0 40 40;" xml:space="preserve">
<style type="text/css">
	.st0{fill:#333;}
</style>
<g id="XMLID_5_">
	<path id="XMLID_68_" class="st0" d="M20,2C10.1,2,2,10.1,2,20s8.1,18,18,18c9.9,0,18-8.1,18-18S29.9,2,20,2z M17.2,30.1
		c-0.2,0.2-0.5,0.3-0.7,0.3s-0.5-0.1-0.7-0.3l-9.5-9.5c-0.4-0.4-0.4-1,0-1.4s1-0.4,1.4,0l8.8,8.8l15.2-15.2c0.4-0.4,1-0.4,1.4,0
		s0.4,1,0,1.4L17.2,30.1z"/>
</g>
</svg>
