<?xml version="1.0" encoding="utf-8"?>
<!-- Generator: Adobe Illustrator 19.0.0, SVG Export Plug-In . SVG Version: 6.00 Build 0)  -->
<svg version="1.1" id="图层_1" xmlns="http://www.w3.org/2000/svg" xmlns:xlink="http://www.w3.org/1999/xlink" x="0px" y="0px"
	 viewBox="0 0 49.1 49.1" style="enable-background:new 0 0 49.1 49.1;" xml:space="preserve">
<style type="text/css">
	.st0{fill:#CCCCCC;}
</style>
<path id="XMLID_59_" class="st0" d="M24.5,0.7c-13.3,0-24,10.7-24,24s10.7,24,24,24s24-10.7,24-24S37.8,0.7,24.5,0.7z M37.7,37
	c0.4,0.4,0.4,1,0,1.4c-0.2,0.2-0.5,0.3-0.7,0.3s-0.5-0.1-0.7-0.3l-11-11l-12,12c-0.2,0.2-0.5,0.3-0.7,0.3s-0.5-0.1-0.7-0.3
	c-0.4-0.4-0.4-1,0-1.4l12-12l-12-12c-0.4-0.4-0.4-1,0-1.4s1-0.4,1.4,0l12,12l11-11c0.4-0.4,1-0.4,1.4,0s0.4,1,0,1.4l-11,11L37.7,37z
	"/>
</svg>
