<?xml version="1.0" encoding="utf-8"?>
<!-- Generator: Adobe Illustrator 19.0.0, SVG Export Plug-In . SVG Version: 6.00 Build 0)  -->
<svg version="1.1" id="图层_1" xmlns="http://www.w3.org/2000/svg" xmlns:xlink="http://www.w3.org/1999/xlink" x="0px" y="0px"
	 viewBox="0 0 91.5 91.5" style="enable-background:new 0 0 91.5 91.5;" xml:space="preserve">
<style type="text/css">
	.st0{fill:#333333;}
</style>
<path id="XMLID_5238_" class="st0" d="M81.4,42.5c-0.1-0.1-0.2-0.2-0.2-0.3c0.8-1.2,1.3-2.6,1.3-4c0-6-8.1-10.6-18.4-10.6
	c-7.5,0-13.8,2.5-16.7,6.1c0.6-1.1,0.9-2.2,0.9-3.4c0-1.3-0.4-2.5-1.1-3.6c-0.1-0.1-0.2-0.2-0.2-0.3c0.8-1.2,1.3-2.6,1.3-4
	c0-1.3-0.4-2.5-1.1-3.6c-0.1-0.1-0.2-0.2-0.2-0.3c0.8-1.2,1.3-2.6,1.3-4c0-6-8.1-10.6-18.4-10.6S11.5,8.7,11.5,14.6
	c0,1.5,0.5,2.9,1.4,4.2c-0.3,0.1-0.5,0.3-0.6,0.6c-0.5,1-0.8,2.1-0.8,3.1c0,1.5,0.5,2.9,1.4,4.2c-0.3,0.1-0.5,0.3-0.6,0.6
	c-0.5,1-0.8,2.1-0.8,3.1c0,1.5,0.5,2.9,1.4,4.2c-0.3,0.1-0.5,0.3-0.6,0.6c-0.5,1-0.8,2.1-0.8,3.1c0,1.5,0.5,2.9,1.4,4.2
	c-0.3,0.1-0.5,0.3-0.6,0.6c-0.5,1-0.8,2.1-0.8,3.1c0,1.5,0.5,2.9,1.4,4.2c-0.3,0.1-0.5,0.3-0.6,0.6c-0.5,1-0.8,2.1-0.8,3.1
	c0,1.5,0.5,2.9,1.4,4.2c-0.3,0.1-0.5,0.3-0.6,0.6c-0.5,1-0.8,2.1-0.8,3.1c0,6,8.1,10.6,18.4,10.6c0.4,0,0.8,0,1.2-0.1
	c0.2,0.4,0.4,0.7,0.6,1.1c-0.3,0.1-0.5,0.3-0.6,0.6c-0.5,1-0.8,2.1-0.8,3.1c0,6,8.1,10.6,18.4,10.6s18.4-4.7,18.4-10.6
	c0-1.3-0.4-2.5-1.1-3.6c-0.1-0.1-0.2-0.2-0.2-0.3c0.2-0.3,0.4-0.6,0.5-0.9c9.2-0.6,16.1-5,16.1-10.5c0-1.3-0.4-2.5-1.1-3.6
	c-0.1-0.1-0.2-0.2-0.2-0.3c0.8-1.2,1.3-2.6,1.3-4c0-1.3-0.4-2.5-1.1-3.6c-0.1-0.1-0.2-0.2-0.2-0.3c0.8-1.2,1.3-2.6,1.3-4
	C82.5,44.9,82.1,43.7,81.4,42.5z M38.1,55.7c1.1-0.3,2.2-0.7,3.2-1.2c2.2-0.6,4.7-1,7.4-1c2.3,0,4.4,0.3,6.4,0.7
	c0.1,0.1,0.2,0.1,0.2,0.2c0.1,0,0.2,0,0.3,0c5.2,1.3,8.8,4.1,8.8,7.1c0,4.3-7.2,8-15.8,8s-15.8-3.7-15.8-8
	C32.9,59.2,35,57.1,38.1,55.7z M46.6,50.9c0.2,0,0.3,0,0.5,0.1c-0.6,0-1.2,0.1-1.8,0.1C45.8,51,46.2,50.9,46.6,50.9z M29.9,6.6
	c8.6,0,15.8,3.7,15.8,8c0,4.3-7.2,8-15.8,8s-15.8-3.7-15.8-8C14.1,10.3,21.3,6.6,29.9,6.6z M14.6,20.6c3.3,2.8,8.8,4.6,15.3,4.6
	c6.4,0,12-1.8,15.3-4.6c0.3,0.6,0.5,1.2,0.5,1.9c0,4.3-7.2,8-15.8,8s-15.8-3.7-15.8-8C14.1,21.9,14.3,21.2,14.6,20.6z M14.6,28.5
	c3.3,2.8,8.8,4.6,15.3,4.6c6.4,0,12-1.8,15.3-4.6c0.3,0.6,0.5,1.2,0.5,1.9c0,4.3-7.2,8-15.8,8s-15.8-3.7-15.8-8
	C14.1,29.8,14.3,29.1,14.6,28.5z M14.6,36.4c3.3,2.8,8.8,4.6,15.3,4.6c6.4,0,12-1.8,15.3-4.6c0.3,0.6,0.5,1.2,0.5,1.9
	c0,4.3-7.2,8-15.8,8s-15.8-3.7-15.8-8C14.1,37.7,14.3,37,14.6,36.4z M14.6,44.3c3.3,2.8,8.8,4.6,15.3,4.6c6.4,0,12-1.8,15.3-4.6
	c0.3,0.6,0.5,1.2,0.5,1.9c0,2.2-1.9,4.3-5,5.8c-1.3,0.4-2.6,0.8-3.7,1.4c-2.1,0.6-4.5,0.9-7.1,0.9c-8.6,0-15.8-3.7-15.8-8
	C14.1,45.5,14.3,44.9,14.6,44.3z M14.6,52.2c3.3,2.8,8.8,4.6,15.3,4.6c0.8,0,1.6-0.1,2.4-0.1c-1.3,1.4-2,3.1-2,4.8
	c0,0.2,0,0.4,0,0.5c-0.2,0-0.3,0-0.5,0c-8.6,0-15.8-3.7-15.8-8C14.1,53.4,14.3,52.8,14.6,52.2z M31.1,66.3c-0.5,1-0.8,2.1-0.8,3.1
	c0,0.2,0,0.4,0,0.5c-0.2,0-0.3,0-0.5,0c-8.6,0-15.8-3.7-15.8-8c0-0.6,0.2-1.3,0.5-1.9c3.3,2.8,8.8,4.6,15.3,4.6c0.4,0,0.8,0,1.2-0.1
	c0.2,0.4,0.4,0.7,0.6,1.1C31.5,65.8,31.2,66,31.1,66.3z M48.7,85.3c-8.6,0-15.8-3.7-15.8-8c0-0.6,0.2-1.3,0.5-1.9
	c3.3,2.8,8.8,4.6,15.3,4.6c6.4,0,12-1.8,15.3-4.6c0.3,0.6,0.5,1.2,0.5,1.9C64.5,81.6,57.3,85.3,48.7,85.3z M48.7,77.4
	c-8.6,0-15.8-3.7-15.8-8c0-0.6,0.2-1.3,0.5-1.9c3.3,2.8,8.8,4.6,15.3,4.6c6.4,0,12-1.8,15.3-4.6c0.3,0.6,0.5,1.2,0.5,1.9
	C64.5,73.7,57.3,77.4,48.7,77.4z M67.1,69.8c0-0.1,0-0.2,0-0.4c0-1.3-0.4-2.5-1.1-3.6c-0.1-0.1-0.2-0.2-0.2-0.3
	c0.2-0.3,0.4-0.6,0.5-0.9c5.4-0.4,10.1-2.1,13-4.5c0.3,0.6,0.5,1.2,0.5,1.9C79.8,65.8,74.2,69,67.1,69.8z M67.1,61.9
	c0-0.1,0-0.2,0-0.4c0-1.7-0.7-3.3-1.9-4.8c5.9-0.2,11-1.9,14.1-4.6c0.3,0.6,0.5,1.2,0.5,1.9C79.8,57.9,74.2,61.1,67.1,61.9z
	 M64,54.2c-0.7,0-1.4,0-2.1-0.1c-2.7-1.6-6.3-2.7-10.4-3.1c-2.1-1.4-3.4-3-3.4-4.9c0-0.6,0.2-1.3,0.5-1.9c3.3,2.8,8.8,4.6,15.3,4.6
	c6.4,0,12-1.8,15.3-4.6c0.3,0.6,0.5,1.2,0.5,1.9C79.8,50.5,72.6,54.2,64,54.2z M64,46.3c-8.6,0-15.8-3.7-15.8-8c0-4.3,7.2-8,15.8-8
	s15.8,3.7,15.8,8C79.8,42.6,72.6,46.3,64,46.3z"/>
</svg>