<?xml version="1.0" encoding="utf-8"?>
<!-- Generator: Adobe Illustrator 19.0.0, SVG Export Plug-In . SVG Version: 6.00 Build 0)  -->
<svg version="1.1" id="图层_1" xmlns="http://www.w3.org/2000/svg" xmlns:xlink="http://www.w3.org/1999/xlink" x="0px" y="0px"
	 viewBox="-439 246 60 60" style="enable-background:new -439 246 60 60;" xml:space="preserve">
<style type="text/css">
	.st0{fill:#808080;}
</style>
<path id="XMLID_2022_" class="st0" d="M-386.1,269.4c-0.9-4.1-3.5-5.4-6-5.4h-2.6c-1.9-7-7.3-12.8-13.4-12.8
	c-6.2,0-11.5,5.8-13.4,12.8h-2.6c-2.5,0-5.2,1.3-6,5.5l-4.5,26.2c0,2.6,2.3,5.3,5,5.3h43.1c2.8,0,5-2.7,5-5.4L-386.1,269.4z
	 M-418.2,264c1.7-4,5.6-9.7,10-9.7s8.4,5.7,10,9.7H-418.2z M-420.6,272.9c0.9,0,1.6-0.5,1.6-1.4c0-0.9,0.1-2.6,0.2-2.6h21.4
	c0.1,0,0.2,1.7,0.2,2.6c0,0.8,0.7,1.5,1.6,1.5c0.9,0,1.6-0.6,1.6-1.4c0-0.9-0.1-2.6-0.2-2.6h2.6c1.3,0,1.9,0.3,2.2,1.6l4.5,25.1
	c0,0.9-0.8,1.3-1.8,1.3h-43.1c-1,0-1.8-0.4-1.8-1.3l4.5-25.3c0.3-1.3,0.9-1.4,2.2-1.4h2.6c-0.1,0-0.2,1.7-0.2,2.6
	C-422.2,272.4-421.5,272.9-420.6,272.9z"/>
</svg>
