<?xml version="1.0" encoding="utf-8"?>
<!-- Generator: Adobe Illustrator 19.0.0, SVG Export Plug-In . SVG Version: 6.00 Build 0)  -->
<svg version="1.1" id="图层_1" xmlns="http://www.w3.org/2000/svg" xmlns:xlink="http://www.w3.org/1999/xlink" x="0px" y="0px"
	 viewBox="0 0 73 73" style="enable-background:new 0 0 73 73;" xml:space="preserve">
<path id="XMLID_69_" d="M66.9,37.4L54.3,24.9V12.6c0-0.4,0-0.2-0.2-0.5c-0.3-0.3-0.4,0.1-0.8,0.1h-5.7c-0.8,0-1.8,0.1-1.8,0.9
	l-0.4-0.5v3.8l-7-7.4c0-0.1,0.1-0.1,0.1-0.2c-0.3-0.3-0.6-0.4-0.9-0.4c-0.4,0-0.7,0.1-1,0.4c-0.1,0.1-0.1,0.1-0.1,0.2L7.8,37.4
	c-0.5,0.5-0.5,1.4,0,2c0.5,0.5,1.4,0.5,2,0l5.5-5.5v25.7c0,3.2,3.3,6.7,6.4,6.7h31.5c3.2,0,5-3.5,5-6.7V32.5l6.9,6.9
	c0.5,0.5,1.3,0.5,1.9,0C67.6,38.9,67.5,38,66.9,37.4z M48.3,15.3h3v6.8l-3-2.9V15.3z M41.3,63.3h-8v-17h8V63.3z M56.3,32.4v27.2
	c0,1.6-1.5,3.7-3,3.7h-9V43.8c0-0.8-0.3-0.6-1.1-0.6H31.7c-0.8,0-1.5-0.2-1.5,0.6v19.4h-8.6c-1.6,0-3.4-2.1-3.4-3.7V32.4
	c0-0.4-0.2-0.8-0.5-1l19.7-19.7l8.9,8.9c0.1,0.1,0.2,0.2,0.2,0.2l5.5,5.5c0.1,0.1,0.2,0.2,0.2,0.2l4.4,4.4
	C56.4,31.3,56.3,31.8,56.3,32.4z"/>
</svg>
