<?xml version="1.0" encoding="utf-8"?>
<!-- Generator: Adobe Illustrator 19.0.0, SVG Export Plug-In . SVG Version: 6.00 Build 0)  -->
<svg version="1.1" id="图层_1" xmlns="http://www.w3.org/2000/svg" xmlns:xlink="http://www.w3.org/1999/xlink" x="0px" y="0px"
	 viewBox="0 0 60 60" style="enable-background:new 0 0 60 60;" xml:space="preserve">
<g id="XMLID_2_">
	<path id="XMLID_6_" d="M38.8,22.2c-0.4,0.4-0.4,1,0,1.4c1.5,1.5,2.3,3.4,2.3,5.5c0,2.1-0.8,4.1-2.3,5.5c-0.4,0.4-0.4,1,0,1.4
		c0.2,0.2,0.5,0.3,0.7,0.3c0.3,0,0.5-0.1,0.7-0.3c1.9-1.9,2.9-4.3,2.9-7s-1-5.1-2.9-7C39.8,21.8,39.1,21.8,38.8,22.2z"/>
	<path id="XMLID_13_" d="M44.9,17.4c-0.4-0.4-1-0.4-1.4,0s-0.4,1,0,1.4c2.7,2.7,4.2,6.4,4.2,10.3s-1.5,7.5-4.2,10.3
		c-0.4,0.4-0.4,1,0,1.4c0.2,0.2,0.5,0.3,0.7,0.3s0.5-0.1,0.7-0.3c3.1-3.1,4.8-7.3,4.8-11.7S48,20.5,44.9,17.4z"/>
	<path id="XMLID_14_" d="M49.6,12.7c-0.4-0.4-1-0.4-1.4,0c-0.4,0.4-0.4,1,0,1.4c4,4,6.2,9.3,6.2,14.9s-2.2,11-6.2,14.9
		c-0.4,0.4-0.4,1,0,1.4c0.2,0.2,0.5,0.3,0.7,0.3s0.5-0.1,0.7-0.3c4.4-4.4,6.8-10.2,6.8-16.4S54,17.1,49.6,12.7z"/>
	<path id="XMLID_17_" d="M31.5,6.7c-0.3-0.2-0.7-0.1-1,0.1l-12.9,9.5C17.3,16.1,17,16,16.7,16H6.4C5,16,4,17.2,4,18.6v23.2
		C4,43.1,5,44,6.4,44h10.3c0.3,0,0.5,0.1,0.7,0l13,8.2c0.2,0.1,0.3,0.2,0.5,0.2c0.2,0,0.3,0,0.5-0.1c0.3-0.2,0.5-0.5,0.5-0.9L32,7.5
		C32,7.2,31.8,6.8,31.5,6.7z M17,41.5c0,0.3-0.2,0.5-0.5,0.5h-10C6.2,42,6,41.8,6,41.5v-23C6,18.2,6.2,18,6.5,18h10
		c0.3,0,0.5,0.2,0.5,0.5V41.5z M30,49.6l-11.1-6.9c0.1-0.3,0.1-0.6,0.1-1V18.6c0-0.3,0-0.6-0.1-0.9L30,9.5L30,49.6z"/>
</g>
</svg>
