<?xml version="1.0" encoding="utf-8"?>
<!-- Generator: Adobe Illustrator 19.0.0, SVG Export Plug-In . SVG Version: 6.00 Build 0)  -->
<svg version="1.1" id="图层_1" xmlns="http://www.w3.org/2000/svg" xmlns:xlink="http://www.w3.org/1999/xlink" x="0px" y="0px"
	 viewBox="0 0 45 45" style="enable-background:new 0 0 45 45;" xml:space="preserve">
<style type="text/css">
	.st0{fill:#4D4D4D;}
</style>
<g id="XMLID_6_">
	<path id="XMLID_77_" class="st0" d="M33.1,15.5v-3.2c0-5.9-4.1-10.2-10-10.2h-0.2c-6.2,0-11.8,4.6-11.8,10.2v3.2c-2,1-4,3.4-4,6.1
		v14.7c0,3.7,3.3,6.8,7,6.8h16.7c3.7,0,6.3-3.1,6.3-6.8V21.6C37.1,18.9,36.1,16.6,33.1,15.5z M12.1,12.3c0-5.6,5.8-9.2,10.8-9.2h0.2
		c5.3,0,9,3.9,9,9.2v2.9c0-0.1-0.7-0.1-1.3-0.1H14.1c-0.6,0-1-0.1-2,0.1V12.3z M36.1,36.4c0,3.1-2.2,5.8-5.3,5.8H14.1
		c-3.1,0-6-2.7-6-5.8V21.6c0-2.3,1.6-4.3,3.6-5.2c0,0,0.2,0,0.2,0c0.2,0,0.4,0,0.5-0.2c0.5-0.2,1.2-0.2,1.8-0.2h16.7
		c0.6,0,1.2,0,1.7,0.2c0.1,0.1,0.2,0.2,0.4,0.2c0,0-0.1,0-0.1,0c2,0.9,3.2,2.8,3.2,5.1V36.4z"/>
	<path id="XMLID_81_" class="st0" d="M23,23.3c-1.4,0-2.7,1.1-2.7,2.5c0,1.2,0.8,2.2,1.8,2.5V34c0,0.3,0.2,0.5,0.5,0.5
		s0.5-0.2,0.5-0.5v-5.6c2-0.2,2.3-1.3,2.3-2.5C25.4,24.5,24.4,23.3,23,23.3z M23,27.4c-0.9,0-1.5-0.7-1.5-1.5s0.7-1.5,1.5-1.5
		s1.5,0.7,1.5,1.5S23.9,27.4,23,27.4z"/>
</g>
</svg>
