<?xml version="1.0" encoding="utf-8"?>
<!-- Generator: Adobe Illustrator 19.0.0, SVG Export Plug-In . SVG Version: 6.00 Build 0)  -->
<svg version="1.1" id="图层_1" xmlns="http://www.w3.org/2000/svg" xmlns:xlink="http://www.w3.org/1999/xlink" x="0px" y="0px"
	 viewBox="0 0 73 73" style="enable-background:new 0 0 73 73;" xml:space="preserve">
<style type="text/css">
	.st0{fill:#657A92;}
</style>
<path id="XMLID_253_" class="st0" d="M52.1,31.1C52,31.1,52,31.1,52.1,31.1c0-0.2,0.2-0.4,0.3-0.5c4.2-0.2,6-2.9,7.6-5.2l0.5-0.7
	c2.1-3.1,2.8-6.9,2-10.7c-0.8-3.7-3-7-6.2-9.1c-3.2-2.2-7-3-10.8-2.3c-3.8,0.7-7,2.7-9.1,5.9c-2.2,3.3-2.9,7.3-1.9,11.1
	c-11.4-5.3-20.8-5.6-24.1-0.7c-0.5,0.7-0.8,1.6-1,2.5c-0.3,0-0.7,0.2-0.9,0.5c-0.2,0.2-0.4,0.4-0.5,0.7c-3.1,4.6,0.3,12.5,8,20.3
	c-1.8,1-3.4,2.3-4.5,4c-4.1,6.1-1.9,14.9,4.9,19.4c2.7,1.8,5.8,2.8,8.9,2.8c0.7,0,1.3,0,2-0.1c3.8-0.5,7-2.4,9-5.4
	c1.1-1.6,1.8-3.6,2-5.6c3,1.3,5.8,2.2,8.5,2.8c1.9,0.4,3.7,0.6,5.3,0.6c3.9,0,6.8-1.2,8.4-3.5c0.3-0.5,0.6-1,0.8-1.5
	c0.1-0.1,0.1-0.3,0.1-0.4c0.6-0.5,1.2-1,1.6-1.6C66.2,49,62,40,52.1,31.1z M37.5,19.7c-1.2-3.3-0.7-6.9,1.2-9.7
	c1.6-2.4,4.2-4.1,7.2-4.6c0.7-0.1,1.3-0.2,2-0.2c2.3,0,4.6,0.7,6.6,2c2.6,1.7,4.3,4.3,5,7.3c0.6,3,0.1,5.9-1.5,8.4
	c-0.2,0.3-0.3,0.5-0.5,0.8c-1.6,2.4-2.6,4-5.8,3.9c-0.5,0-1,0.2-1.3,0.7c-3.2,4.8-7.7,8.4-11.4,9.2c-1,0.2-2.3,0.3-3.4-0.4
	c-2.7-1.8-2.6-8.7,1.9-16C37.6,20.6,37.7,20.1,37.5,19.7z M12.8,20.4c1-1.4,3-2.1,5.8-2.1c3.7,0,8.7,1.3,14.1,3.7
	c-3.6,8-3.2,15.2,1.2,18.1c4.4,3,11.2,0.7,17.3-5.7c7.6,7.1,11.4,14.6,9.1,18c-1.4,2.1-5.3,2.7-10.6,1.6c-5.8-1.2-12.6-4.3-19.1-8.7
	C16.5,35.9,9.9,24.6,12.8,20.4z M35.2,56.8c-0.1,1.7-0.6,3.4-1.6,4.8c-1.5,2.3-4,3.7-6.9,4.1c-3,0.4-6.1-0.4-8.8-2.2
	c-5.5-3.7-7.3-10.5-4.1-15.3c0.9-1.3,2.1-2.4,3.6-3.1c0.2-0.1,0.4-0.3,0.5-0.5c2.5,2.3,5.3,4.5,8.5,6.6c2.9,2,5.9,3.6,8.8,5.1
	C35.2,56.6,35.2,56.7,35.2,56.8z M47.2,57.6c-5.8-1.2-12.6-4.3-19.1-8.7c-12-8.1-18.5-17.5-18.4-22.6c2,6.5,9,14.7,19.1,21.5
	c6.8,4.6,14,7.8,20.2,9.1c1.9,0.4,3.7,0.6,5.3,0.6c0.6,0,1.1,0,1.6-0.1C54,58.3,51,58.4,47.2,57.6z"/>
</svg>
