<?xml version="1.0" encoding="utf-8"?>
<!-- Generator: Adobe Illustrator 19.0.0, SVG Export Plug-In . SVG Version: 6.00 Build 0)  -->
<svg version="1.1" id="图层_1" xmlns="http://www.w3.org/2000/svg" xmlns:xlink="http://www.w3.org/1999/xlink" x="0px" y="0px"
	 viewBox="0 0 61.7 61.7" style="enable-background:new 0 0 61.7 61.7;" xml:space="preserve">
<style type="text/css">
	.st0{fill:#808080;}
</style>
<g id="XMLID_48_">
	<path id="XMLID_797_" class="st0" d="M39.9,47.9c-3.2,3.1-7.3,4.9-11.8,4.9c-8.5,0-15.5-6.4-16.5-14.6l5.8,4.2
		c0.2,0.1,0.4,0.2,0.6,0.2c0.3,0,0.6-0.1,0.8-0.4c0.3-0.4,0.2-1.1-0.2-1.4l-7.6-5.5c0,0-0.1,0-0.1,0c-0.1,0-0.1-0.1-0.2-0.1
		c-0.1,0-0.1,0-0.2,0c0,0-0.1,0-0.1,0c0,0,0,0-0.1,0c-0.1,0-0.1,0-0.2,0c-0.1,0-0.1,0-0.2,0.1c0,0,0,0-0.1,0c0,0-0.1,0.1-0.1,0.1
		c-0.1,0-0.1,0.1-0.1,0.1c0,0,0,0-0.1,0.1c0,0,0,0,0,0l-5.5,7.6c-0.3,0.4-0.2,1.1,0.2,1.4c0.2,0.1,0.4,0.2,0.6,0.2
		c0.3,0,0.6-0.1,0.8-0.4l3.9-5.4c1.3,9,9.1,15.9,18.4,15.9c5,0,9.6-1.9,13.2-5.4c0.4-0.4,0.4-1,0-1.4C40.9,47.5,40.3,47.5,39.9,47.9
		z"/>
	<path id="XMLID_1639_" class="st0" d="M25.4,10.6c3.8-2.4,8.2-3.1,12.6-2.2c8.3,1.9,13.7,9.6,12.9,17.8l-4.8-5.4
		c-0.4-0.4-1-0.5-1.4-0.1s-0.5,1-0.1,1.4l6.2,7c0,0,0.1,0,0.1,0.1c0.1,0.1,0.1,0.1,0.2,0.1c0.1,0,0.1,0.1,0.2,0.1c0,0,0.1,0,0.1,0
		c0.1,0,0.1,0,0.2,0c0.1,0,0.2,0,0.3-0.1c0,0,0,0,0.1,0c0.1,0,0.2-0.1,0.2-0.1c0,0,0,0,0,0l7-6.2c0.4-0.4,0.5-1,0.1-1.4
		s-1-0.5-1.4-0.1l-5,4.4c0.7-9-5.4-17.5-14.5-19.5c-4.8-1.1-9.8-0.2-14.1,2.4c-0.5,0.3-0.6,0.9-0.3,1.4C24.3,10.8,25,10.9,25.4,10.6
		z"/>
	<path id="XMLID_1651_" class="st0" d="M59.6,45.3l-3.4-3.4C55.7,41.4,55,41,54.4,41c-1.3-0.2-2.6,0.5-3.2,1.8l-0.8,1.6
		c-1-0.7-1.9-1.6-2.8-2.5c-0.9-0.9-1.7-1.9-2.5-2.8l1.6-0.8c1.2-0.6,2-2,1.8-3.2c-0.1-0.7-0.4-1.3-0.9-1.8l-3.4-3.4
		c-0.8-0.8-2-1.1-3.2-0.8c-0.5,0.2-1,0.4-1.3,0.8l-1.7,1.7c-1.6,1.6-1.5,4.6,0.2,8.1c1.1,2.3,2.8,4.6,5,6.7s4.4,3.8,6.7,4.9
		c1.8,0.9,3.5,1.4,4.9,1.4c1.3,0,2.4-0.4,3.1-1.2l1.7-1.7c0.4-0.4,0.6-0.8,0.8-1.3C60.7,47.3,60.4,46.1,59.6,45.3z M58.9,48
		c-0.1,0.3-0.2,0.5-0.4,0.7l-1.7,1.7c-1.1,1.1-3.5,0.9-6.4-0.5c-2.1-1-4.3-2.7-6.3-4.7c-2-2-3.6-4.2-4.7-6.3
		c-1.4-2.9-1.6-5.3-0.5-6.4l1.7-1.7c0.2-0.2,0.4-0.3,0.7-0.4c0.6-0.2,1.2,0,1.7,0.4l3.4,3.4c0.3,0.3,0.4,0.6,0.5,0.9
		c0.1,0.6-0.3,1.3-1,1.7l-2.4,1.2c0,0,0,0,0,0c0,0,0,0-0.1,0c0,0,0,0-0.1,0.1c0,0-0.1,0.1-0.1,0.1c0,0,0,0.1-0.1,0.1s0,0.1-0.1,0.1
		s0,0.1,0,0.1c0,0,0,0.1,0,0.1c0,0,0,0.1,0,0.1c0,0,0,0.1,0,0.1c0,0,0,0,0,0.1c0,0,0,0,0,0c0.9,1.3,2,2.5,3.2,3.7
		c1.2,1.2,2.5,2.3,3.7,3.2c0,0,0,0,0.1,0c0,0,0,0,0,0c0,0,0,0,0,0c0.1,0,0.1,0,0.2,0.1c0,0,0,0,0.1,0c0,0,0,0,0,0c0,0,0,0,0.1,0
		c0.1,0,0.2,0,0.2-0.1c0,0,0.1,0,0.1-0.1c0.1,0,0.1-0.1,0.2-0.1c0,0,0,0,0.1,0c0,0,0,0,0-0.1c0,0,0,0,0,0l1.2-2.4
		c0.3-0.7,1-1.1,1.7-1c0.3,0,0.7,0.2,0.9,0.5l3.4,3.4C59,46.8,59.1,47.4,58.9,48z"/>
	<path id="XMLID_1658_" class="st0" d="M5,32h20c0.6,0,1-0.4,1-1V16c0-0.6-0.4-1-1-1H5c-0.6,0-1,0.4-1,1v15C4,31.6,4.4,32,5,32z
		 M23,17l-7.9,6.1L7.3,17H23z M6,17.4l8.7,6.9c0.1,0.1,0.3,0.2,0.4,0.2c0.2,0,0.4-0.1,0.5-0.2l8.3-6.5V30H6V17.4z"/>
</g>
</svg>
