<?xml version="1.0" encoding="utf-8"?>
<!-- Generator: Adobe Illustrator 19.0.0, SVG Export Plug-In . SVG Version: 6.00 Build 0)  -->
<svg version="1.1" id="图层_1" xmlns="http://www.w3.org/2000/svg" xmlns:xlink="http://www.w3.org/1999/xlink" x="0px" y="0px"
	 viewBox="0 0 49.1 49.1" style="enable-background:new 0 0 49.1 49.1;" xml:space="preserve">
<style type="text/css">
	.st0{fill:#999999;}
</style>
<g id="XMLID_55_">
	<path id="XMLID_62_" class="st0" d="M34.3,4.8h-20c-1.9,0-3.5,1.6-3.5,3.5v32c0,1.9,1.6,3.5,3.5,3.5h20c1.9,0,3.5-1.6,3.5-3.5v-32
		C37.8,6.3,36.2,4.8,34.3,4.8z M36.8,40.7c0,1.4-0.7,2-2.1,2h-20c-1.4,0-2.9-0.6-2.9-2v-5h25V40.7z M36.8,34.8h-25v-21h25V34.8z
		 M36.8,12.8h-25v-4c0-1.4,1.6-3,2.9-3h20c1.4,0,2.1,1.6,2.1,3V12.8z"/>
	<path id="XMLID_67_" class="st0" d="M26.7,8.8h-4c-0.3,0-0.5,0.2-0.5,0.5s0.2,0.5,0.5,0.5h4c0.3,0,0.5-0.2,0.5-0.5S27,8.8,26.7,8.8
		z"/>
	<path id="XMLID_68_" class="st0" d="M23.7,39.8h2c0.3,0,0.5-0.2,0.5-0.5s-0.2-0.5-0.5-0.5h-2c-0.3,0-0.5,0.2-0.5,0.5
		S23.4,39.8,23.7,39.8z"/>
</g>
</svg>
