<?xml version="1.0" encoding="utf-8"?>
<!-- Generator: Adobe Illustrator 19.0.0, SVG Export Plug-In . SVG Version: 6.00 Build 0)  -->
<svg version="1.1" id="图层_1" xmlns="http://www.w3.org/2000/svg" xmlns:xlink="http://www.w3.org/1999/xlink" x="0px" y="0px"
	 viewBox="0 0 42.3 42.3" style="enable-background:new 0 0 42.3 42.3;" xml:space="preserve">
<style type="text/css">
	.st0{fill:#3D5770;}
	.st1{fill:#999999;}
</style>
<g id="XMLID_2577_">
	<g id="XMLID_2591_">
		<line id="XMLID_2594_" class="st0" x1="4" y1="9" x2="37" y2="9"/>
		<path id="XMLID_2593_" class="st1" d="M37.5,10h-33C3.7,10,3,9.3,3,8.5S3.7,7,4.5,7h33C38.3,7,39,7.7,39,8.5S38.3,10,37.5,10z"/>
	</g>
	<g id="XMLID_2588_">
		<line id="XMLID_2590_" class="st0" x1="4" y1="22" x2="37" y2="22"/>
		<path id="XMLID_2589_" class="st1" d="M37.5,23h-33C3.7,23,3,22.3,3,21.5S3.7,20,4.5,20h33c0.8,0,1.5,0.7,1.5,1.5S38.3,23,37.5,23
			z"/>
	</g>
	<g id="XMLID_2580_">
		<line id="XMLID_2586_" class="st0" x1="4" y1="36" x2="37" y2="36"/>
		<path id="XMLID_2585_" class="st1" d="M37.5,37h-33C3.7,37,3,36.3,3,35.5S3.7,34,4.5,34h33c0.8,0,1.5,0.7,1.5,1.5S38.3,37,37.5,37
			z"/>
	</g>
</g>
</svg>
