<?xml version="1.0" encoding="utf-8"?>
<!-- Generator: Adobe Illustrator 19.0.0, SVG Export Plug-In . SVG Version: 6.00 Build 0)  -->
<svg version="1.1" id="图层_1" xmlns="http://www.w3.org/2000/svg" xmlns:xlink="http://www.w3.org/1999/xlink" x="0px" y="0px"
	 viewBox="0 0 60 60" style="enable-background:new 0 0 60 60;" xml:space="preserve">
<g id="XMLID_3_">
	<path id="XMLID_15_" d="M52.7,8.7c0-0.2-0.2-0.4-0.4-0.7l-4.8-3.5c-0.4-0.4-1.1-0.2-1.5,0.2l-2.3,2.9l-0.8-0.6
		c-0.4-0.4-1.1-0.2-1.6,0.2L20.1,33.9c-0.2,0.2-0.2,0.4-0.2,0.6L19.7,43c0,0.2,0.2,0.6,0.4,0.8c0.2,0.2,0.4,0.2,0.7,0.2H21l8.5-2.4
		c0.2,0,0.4-0.2,0.4-0.4l21.2-26.6c0.2-0.2,0.2-0.6,0.2-0.9s-0.2-0.4-0.4-0.6l-0.7-0.6l2.3-3C52.7,9.4,52.7,9,52.7,8.7z M28.3,39.7
		l-6.5,1.9l0.2-6.7l0.1-0.1L28.3,39.7L28.3,39.7z M29.8,38l-6.1-4.8L42.4,9.5l6.2,4.8L29.8,38z M48.4,11.3l-3-2.3L47,6.8l3,2.4
		L48.4,11.3z"/>
	<path id="XMLID_18_" d="M23.6,25c0-0.7-0.5-1-1.2-1h-7.1c-0.7,0-1.2,0.3-1.2,1c0,0.7,0.5,1,1.2,1h7.1C23.1,26,23.6,25.7,23.6,25z"
		/>
	<path id="XMLID_19_" d="M46,23.4c-0.7,0-1,0.5-1,1.2V51H11V11h23.1c0.7,0,1.2-0.3,1.2-1s-0.5-1-1.2-1H11.3C9.8,9,9,10,9,11.2v40
		c0,1.5,1.1,2.8,2.3,2.8h33.4c1.2,0,2.3-1.4,2.3-2.6V24.7C47,23.9,46.7,23.4,46,23.4z"/>
	<path id="XMLID_20_" d="M15.2,30c-0.7,0-1.2,0.3-1.2,1c0,0.7,0.5,1,1.2,1h3.2c0.7,0,1.2-0.3,1.2-1c0-0.7-0.5-1-1.2-1H15.2z"/>
	<path id="XMLID_21_" d="M26.2,19c0-0.7-0.6-1-1.6-1h-9c-0.9,0-1.6,0.3-1.6,1c0,0.7,0.6,1,1.6,1h9C25.5,20,26.2,19.7,26.2,19z"/>
</g>
</svg>
