<?xml version="1.0" encoding="utf-8"?>
<!-- Generator: Adobe Illustrator 19.0.0, SVG Export Plug-In . SVG Version: 6.00 Build 0)  -->
<svg version="1.1" id="图层_1" xmlns="http://www.w3.org/2000/svg" xmlns:xlink="http://www.w3.org/1999/xlink" x="0px" y="0px"
	 viewBox="0 0 45 45" style="enable-background:new 0 0 45 45;" xml:space="preserve">
<style type="text/css">
	.st0{fill:#333333;}
</style>
<g id="XMLID_2901_">
	<path id="XMLID_97_" class="st0" d="M35.2,40.1H10.1c-1.6,0-3-1.3-3-3V7.1c0-1.6,1.3-3,3-3h25.1c1.6,0,3,1.3,3,3v30.1
		C38.1,38.8,36.8,40.1,35.2,40.1z M10.1,5.1c-1.1,0-2,0.9-2,2v30.1c0,1.1,0.9,2,2,2h25.1c1.1,0,2-0.9,2-2V7.1c0-1.1-0.9-2-2-2H10.1z
		"/>
	<path id="XMLID_94_" class="st0" d="M32.6,15.1h-21c-0.8,0-1.5-0.7-1.5-1.5v-3c0-0.8,0.7-1.5,1.5-1.5h21c0.8,0,1.5,0.7,1.5,1.5v3
		C34.1,14.5,33.5,15.1,32.6,15.1z M11.6,10.1c-0.3,0-0.5,0.2-0.5,0.5v3c0,0.3,0.2,0.5,0.5,0.5h21c0.3,0,0.5-0.2,0.5-0.5v-3
		c0-0.3-0.2-0.5-0.5-0.5H11.6z"/>
	<path id="XMLID_91_" class="st0" d="M16.6,23.1h-4c-0.8,0-1.5-0.7-1.5-1.5v-2c0-0.8,0.7-1.5,1.5-1.5h4c0.8,0,1.5,0.7,1.5,1.5v2
		C18.1,22.5,17.5,23.1,16.6,23.1z M12.6,19.1c-0.3,0-0.5,0.2-0.5,0.5v2c0,0.3,0.2,0.5,0.5,0.5h4c0.3,0,0.5-0.2,0.5-0.5v-2
		c0-0.3-0.2-0.5-0.5-0.5H12.6z"/>
	<path id="XMLID_88_" class="st0" d="M24.6,23.1h-4c-0.8,0-1.5-0.7-1.5-1.5v-2c0-0.8,0.7-1.5,1.5-1.5h4c0.8,0,1.5,0.7,1.5,1.5v2
		C26.1,22.5,25.5,23.1,24.6,23.1z M20.6,19.1c-0.3,0-0.5,0.2-0.5,0.5v2c0,0.3,0.2,0.5,0.5,0.5h4c0.3,0,0.5-0.2,0.5-0.5v-2
		c0-0.3-0.2-0.5-0.5-0.5H20.6z"/>
	<path id="XMLID_85_" class="st0" d="M32.6,23.1h-4c-0.8,0-1.5-0.7-1.5-1.5v-2c0-0.8,0.7-1.5,1.5-1.5h4c0.8,0,1.5,0.7,1.5,1.5v2
		C34.1,22.5,33.5,23.1,32.6,23.1z M28.6,19.1c-0.3,0-0.5,0.2-0.5,0.5v2c0,0.3,0.2,0.5,0.5,0.5h4c0.3,0,0.5-0.2,0.5-0.5v-2
		c0-0.3-0.2-0.5-0.5-0.5H28.6z"/>
	<path id="XMLID_82_" class="st0" d="M16.6,30.1h-4c-0.8,0-1.5-0.7-1.5-1.5v-2c0-0.8,0.7-1.5,1.5-1.5h4c0.8,0,1.5,0.7,1.5,1.5v2
		C18.1,29.5,17.5,30.1,16.6,30.1z M12.6,26.1c-0.3,0-0.5,0.2-0.5,0.5v2c0,0.3,0.2,0.5,0.5,0.5h4c0.3,0,0.5-0.2,0.5-0.5v-2
		c0-0.3-0.2-0.5-0.5-0.5H12.6z"/>
	<path id="XMLID_79_" class="st0" d="M24.6,30.1h-4c-0.8,0-1.5-0.7-1.5-1.5v-2c0-0.8,0.7-1.5,1.5-1.5h4c0.8,0,1.5,0.7,1.5,1.5v2
		C26.1,29.5,25.5,30.1,24.6,30.1z M20.6,26.1c-0.3,0-0.5,0.2-0.5,0.5v2c0,0.3,0.2,0.5,0.5,0.5h4c0.3,0,0.5-0.2,0.5-0.5v-2
		c0-0.3-0.2-0.5-0.5-0.5H20.6z"/>
	<path id="XMLID_76_" class="st0" d="M32.6,30.1h-4c-0.8,0-1.5-0.7-1.5-1.5v-2c0-0.8,0.7-1.5,1.5-1.5h4c0.8,0,1.5,0.7,1.5,1.5v2
		C34.1,29.5,33.5,30.1,32.6,30.1z M28.6,26.1c-0.3,0-0.5,0.2-0.5,0.5v2c0,0.3,0.2,0.5,0.5,0.5h4c0.3,0,0.5-0.2,0.5-0.5v-2
		c0-0.3-0.2-0.5-0.5-0.5H28.6z"/>
	<path id="XMLID_73_" class="st0" d="M16.6,36.1h-4c-0.8,0-1.5-0.7-1.5-1.5v-2c0-0.8,0.7-1.5,1.5-1.5h4c0.8,0,1.5,0.7,1.5,1.5v2
		C18.1,35.5,17.5,36.1,16.6,36.1z M12.6,32.1c-0.3,0-0.5,0.2-0.5,0.5v2c0,0.3,0.2,0.5,0.5,0.5h4c0.3,0,0.5-0.2,0.5-0.5v-2
		c0-0.3-0.2-0.5-0.5-0.5H12.6z"/>
	<path id="XMLID_70_" class="st0" d="M24.6,36.1h-4c-0.8,0-1.5-0.7-1.5-1.5v-2c0-0.8,0.7-1.5,1.5-1.5h4c0.8,0,1.5,0.7,1.5,1.5v2
		C26.1,35.5,25.5,36.1,24.6,36.1z M20.6,32.1c-0.3,0-0.5,0.2-0.5,0.5v2c0,0.3,0.2,0.5,0.5,0.5h4c0.3,0,0.5-0.2,0.5-0.5v-2
		c0-0.3-0.2-0.5-0.5-0.5H20.6z"/>
	<path id="XMLID_15_" class="st0" d="M32.6,36.1h-4c-0.8,0-1.5-0.7-1.5-1.5v-2c0-0.8,0.7-1.5,1.5-1.5h4c0.8,0,1.5,0.7,1.5,1.5v2
		C34.1,35.5,33.5,36.1,32.6,36.1z M28.6,32.1c-0.3,0-0.5,0.2-0.5,0.5v2c0,0.3,0.2,0.5,0.5,0.5h4c0.3,0,0.5-0.2,0.5-0.5v-2
		c0-0.3-0.2-0.5-0.5-0.5H28.6z"/>
</g>
</svg>
