<?xml version="1.0" encoding="utf-8"?>
<!-- Generator: Adobe Illustrator 19.0.0, SVG Export Plug-In . SVG Version: 6.00 Build 0)  -->
<svg version="1.1" id="图层_1" xmlns="http://www.w3.org/2000/svg" xmlns:xlink="http://www.w3.org/1999/xlink" x="0px" y="0px"
	 viewBox="0 0 45 45" style="enable-background:new 0 0 45 45;" xml:space="preserve">
<style type="text/css">
	.st0{fill:#4D4D4D;}
</style>
<path id="XMLID_6_" class="st0" d="M21.7,40.7c-0.2,0-0.3,0-0.4-0.1C20,40,8.1,34.5,8.1,27.2V9.5c0-0.6,0.5-1,1-1
	c9.9,0,11.7-3.7,11.7-3.7c0.2-0.4,0.5-0.6,0.9-0.6c0.4,0,0.8,0.3,0.9,0.7c0.1,0.1,1.7,3.7,11.5,3.7c0.1,0,0.9,0,0.9,1v17.7
	c0,7.6-12.6,13.2-13.1,13.4C22,40.7,21.9,40.7,21.7,40.7z M21.8,5.2c-0.1,0-1.7,4.3-12.7,4.3l0,17.7c0,6.7,11.6,12.1,12.6,12.5
	c0.8-0.4,12.4-5.7,12.4-12.5V9.5c0,0,0,0,0,0C24,9.4,22,5.6,21.8,5.2L21.8,5.2z"/>
</svg>
