<?xml version="1.0" encoding="utf-8"?>
<!-- Generator: Adobe Illustrator 19.0.0, SVG Export Plug-In . SVG Version: 6.00 Build 0)  -->
<svg version="1.1" id="图层_1" xmlns="http://www.w3.org/2000/svg" xmlns:xlink="http://www.w3.org/1999/xlink" x="0px" y="0px"
	 viewBox="0 0 85.5 85.5" style="enable-background:new 0 0 85.5 85.5;" xml:space="preserve">
<style type="text/css">
	.st0{fill:#FBB03B;}
</style>
<g id="XMLID_40_">
	<path id="XMLID_49_" class="st0" d="M79.7,22.2c-11-6.3-22.3-5.4-32.6,2.4c-6.3,4.8-10.4,10.8-11.8,13l-11.8-6.7
		c-0.3-0.2-0.8-0.2-1.1,0.1c-0.3,0.2-0.5,0.6-0.4,1l6.7,32c0.1,0.3,0.2,0.5,0.5,0.7c0.2,0.1,0.3,0.1,0.5,0.1c0.1,0,0.2,0,0.3-0.1
		l31-10.4c0.4-0.1,0.6-0.5,0.7-0.9c0-0.4-0.2-0.8-0.5-1l-10.1-5.8C65.3,22.5,78.9,24,79.1,24c0.5,0.1,0.9-0.2,1.1-0.7
		C80.3,22.9,80.1,22.4,79.7,22.2z M49.3,46c-0.2,0.1-0.4,0.3-0.5,0.5c-0.2,0.5,0,1,0.4,1.2l9.2,5.3l-27.8,9.4l-6-28.7l10.7,6.1
		c0.5,0.3,1.1,0.1,1.4-0.4c0-0.1,4.4-7.6,11.8-13.2c8.8-6.7,17.9-8,27.2-3.9C70.1,23.3,59.8,27.8,49.3,46z"/>
	<path id="XMLID_52_" class="st0" d="M76.1,49.8H70c-1.4,0-2.7,1.5-2.9,1.9c-0.1,0.2-0.2,0.4-0.2,0.6v16.5H17.4c0-3,0.1-11.5,0-14.2
		c-0.2-3.9-3.1-4.7-3.2-4.7c-0.1,0-0.2,0-0.2,0H8.9c-1.8,0-3.1,1-3.1,2.5v24c0,1.5,1.3,2.5,3.1,2.5h67.2c1.6,0,2.7-1,2.7-2.5v-24
		C78.8,50.8,77.8,49.8,76.1,49.8z M76.8,76.3c0,0.3,0,0.5-0.7,0.5H8.9c-0.3,0-1.1-0.1-1.1-0.5v-24c0-0.5,1.1-0.5,1.1-0.5h4.9
		c0.4,0.1,1.5,0.8,1.6,2.9c0.2,3.2,0,15,0,15.1c0,0.3,0.1,0.5,0.3,0.7c0.2,0.2,0.4,0.3,0.7,0.3h51.4c0.6,0,1-0.4,1-1V52.7
		c0.4-0.5,0.9-0.8,1.2-0.8h6.2c0.7,0,0.7,0.2,0.7,0.5V76.3z"/>
</g>
</svg>
