<?xml version="1.0" encoding="utf-8"?>
<!-- Generator: Adobe Illustrator 19.0.0, SVG Export Plug-In . SVG Version: 6.00 Build 0)  -->
<svg version="1.1" id="图层_1" xmlns="http://www.w3.org/2000/svg" xmlns:xlink="http://www.w3.org/1999/xlink" x="0px" y="0px"
	 viewBox="0 0 60 60" style="enable-background:new 0 0 60 60;" xml:space="preserve">
<path id="XMLID_3_" d="M30,58c-0.1,0-0.2,0-0.3,0c-10.3-2-18.4-9.8-21.6-20.9C8,37,8,36.8,8,36.7V9.8C8,9.4,8.2,9,8.5,8.7
	c0.3-0.3,0.7-0.4,1.1-0.4l3.5,0.1c0.5,0,1.4,0,1.9,0c4,0,7.9-1.1,11.3-3.2c1.3-0.8,2.5-1.8,3.6-2.9c0.6-0.6,1.5-0.6,2.1,0
	c1.2,1.2,2.4,2.1,3.6,2.9c3.4,2.2,7.2,3.3,11.2,3.3c0.2,0,0.3,0,0.5,0l0.2,0l2.1,0c0.8,0,1.5,0.7,1.5,1.5v27c0,0.2,0,0.3-0.1,0.5
	C48.7,48,40.9,55.8,30.4,58C30.2,58,30.1,58,30,58z M11,36.5c3,9.7,10,16.6,19,18.5c9.2-1.9,16.1-8.9,18-18.2V11.5l-0.5,0l-0.1,0
	c-0.2,0-0.4,0-0.7,0c-4.6,0-8.8-1.3-12.8-3.7c-1-0.7-2.1-1.4-3.1-2.3c-1,0.9-2,1.6-3.1,2.3c-3.9,2.4-8.3,3.7-12.9,3.7
	c-0.5,0-1.5,0-2-0.1L11,11.4V36.5z"/>
<path id="XMLID_5_" d="M30.8,52h-0.2c-0.8,0-1.4-0.6-1.5-1.3c0-0.4,0-0.7,0.2-1l0.5-39.1c0-0.6,0.4-1.1,0.9-1.4
	c0.6-0.2,1.2-0.1,1.6,0.3c0.8,0.8,1.5,1.3,2.4,1.9c2.4,1.6,5,2.3,7.7,2.3c0.2,0,0.2,0,0.3,0l0.2,0l1.5,0c0.8,0,1.5,0.7,1.5,1.5v20
	c0,0.1,0,0.2,0,0.3c-1,7.5-6.6,13.7-14.3,16.1C31.4,51.9,31.1,52,30.8,52z M32.8,13.7l-0.5,34.6c5.7-2.4,9.9-7.4,10.6-13.2V16.8
	c-0.1,0-0.2,0-0.5,0c-3.3,0-6.5-1-9.4-2.8C33.1,13.9,32.9,13.8,32.8,13.7z"/>
</svg>
