<?xml version="1.0" encoding="utf-8"?>
<!-- Generator: Adobe Illustrator 19.0.0, SVG Export Plug-In . SVG Version: 6.00 Build 0)  -->
<svg version="1.1" id="图层_1" xmlns="http://www.w3.org/2000/svg" xmlns:xlink="http://www.w3.org/1999/xlink" x="0px" y="0px"
	 viewBox="0 0 115.1 115.1" style="enable-background:new 0 0 115.1 115.1;" xml:space="preserve">
<style type="text/css">
	.st0{fill:#F15A24;}
</style>
<g id="XMLID_53_">
	<path id="XMLID_59_" class="st0" d="M107.1,34.2v-3h-14v5L76.3,29l-18.5,0c-0.5,0-4.9,0.2-9.2,5.7L35.9,51.1l0.3,0.7
		c0.2,0.5,2.3,4.5,6.4,5.5c0.6,0.1,1.1,0.2,1.7,0.2c1.9,0,4-0.8,6-2.3l9.2-9.3l6.9,0.6l15.3,29.3l0.3,0.5l-0.3,0.5
		c-0.5,0.9-1.5,2.6-2.6,3.5c-0.3,0.2-0.6,0.4-0.8,0.4l-0.3,0.1l-0.2,0l-0.1,0c-0.7,0-1.4-0.5-2.2-1.3l-0.1-0.1l-9.8-15.3
		c-0.2-0.4-0.7-0.6-1.1-0.6c-0.2,0-0.5,0.1-0.7,0.2c-0.3,0.2-0.5,0.5-0.6,0.8c-0.1,0.3,0,0.7,0.2,1l5.2,8.2l3,4.7l1.7,2.7l0.1,0.2
		c0.7,0.8,1.5,1.4,2.3,1.8c0.6,0.3,1.2,0.4,1.8,0.4l0.4,0c0.7-0.1,1.5-0.3,2.2-0.8c2.4-1.5,4-4.8,4.7-6.6l0.5-0.7l7.6,0v4.8h14v-2
		h-12v-44H107.1z M93.1,72.8l-9.7,0L68.2,44c-1.7-0.1-5.6-0.5-8.7-0.7l-0.9-0.1l-9.8,10l-0.1,0.1c-1.5,1.1-3,1.7-4.4,1.7
		c-0.4,0-0.7,0-1.1-0.1c-1.7-0.4-3-1.7-3.8-2.7l-0.5-0.7l11.6-15.1c3.3-4.1,6.4-4.6,7.1-4.7l18.1,0l17.4,7.5V72.8z"/>
	<path id="XMLID_63_" class="st0" d="M70.9,82.4c-1.3,0.6-2.6,0.9-3.6,1l0,0c-0.1,0-0.1,0-0.2,0c-0.8,0.1-1.5,0-2,0
		c-0.6-0.2-1.2-0.6-1.7-1.2l-0.1-0.1l-6.6-11.7c-0.2-0.4-0.7-0.7-1.1-0.7c-0.2,0-0.4,0.1-0.6,0.2c-0.3,0.2-0.5,0.5-0.6,0.8
		c-0.1,0.3,0,0.7,0.1,1l4.7,8.4l2.3,3.9c0.1,0.2,0.3,0.4,0.5,0.5c0.4,0.4,0.7,0.6,1.1,0.9c0.1,0.1,0.3,0.2,0.5,0.3c0,0,0.1,0,0.1,0
		c0.8,0.4,1.6,0.6,2.4,0.6c0.9,0,1.8-0.2,2.5-0.4c1.1-0.2,2.3-0.5,3.6-1.1c0.6-0.3,0.9-1,0.6-1.7C72.3,82.4,71.6,82.1,70.9,82.4z"/>
	<path id="XMLID_64_" class="st0" d="M58.7,85.3c-2.4,1.1-4.4,0.6-4.5,0.6c-0.2,0-0.3-0.1-0.5,0c-0.5-0.2-1-0.6-1.5-1.2l-0.1-0.1
		l-4.1-7.1c-0.2-0.4-0.7-0.7-1.1-0.7c-0.2,0-0.4,0.1-0.7,0.2c-0.3,0.2-0.5,0.5-0.6,0.8c-0.1,0.3,0,0.7,0.1,1l3.8,6.6l0.3,0.6
		c1.8,2.4,3.7,2.9,5.1,2.9c0.5,0,1.1-0.1,1.6-0.2l-0.1-0.1c0.9-0.1,2-0.3,3.2-0.9c0.6-0.3,0.9-1,0.6-1.7C60,85.3,59.3,85,58.7,85.3z
		"/>
	<path id="XMLID_65_" class="st0" d="M46.7,87c-1.3,0.7-2.4,0.7-3.1,0.7l-0.1-0.2c-1.3-0.2-3-0.7-4.2-2.7L28.9,67.2h-5.9v-31H36
		c0.3,0,0.7,0,1.1,0h7c0.8,0,1.5-0.7,1.5-1.5s-0.7-1.5-1.5-1.5h-2.8h-0.1H23.1v-6h-14v3h11v44h-11v2h14v-6h4.4l9.6,16
		c1.5,2.6,3.6,3.5,5.4,3.9c0.5,0.1,1,0.1,1.7,0.1c1.1,0,2.3-0.3,3.7-1c0.6-0.3,0.8-1.1,0.5-1.7C48.1,86.9,47.3,86.7,46.7,87z"/>
</g>
</svg>
