<?xml version="1.0" encoding="utf-8"?>
<!-- Generator: Adobe Illustrator 19.0.0, SVG Export Plug-In . SVG Version: 6.00 Build 0)  -->
<svg version="1.1" id="图层_1" xmlns="http://www.w3.org/2000/svg" xmlns:xlink="http://www.w3.org/1999/xlink" x="0px" y="0px"
	 viewBox="0 0 52.5 52.5" style="enable-background:new 0 0 52.5 52.5;" xml:space="preserve">
<style type="text/css">
	.st0{fill:#999999;}
</style>
<path id="XMLID_21_" class="st0" d="M32.2,28.5c4.3-2.3,7.2-6.8,7.2-11.9c0-7.4-6.1-13.5-13.5-13.5c-7.4,0-13.5,6.1-13.5,13.5
	c0,5.2,2.9,9.7,7.2,11.9C11.5,31.2,5.5,38.9,5.5,48c0,0.8,0.7,1.5,1.5,1.5s1.5-0.7,1.5-1.5c0-9.6,7.8-17.5,17.5-17.5
	S43.4,38.4,43.4,48c0,0.8,0.7,1.5,1.5,1.5s1.5-0.7,1.5-1.5C46.4,38.9,40.5,31.2,32.2,28.5z M15.4,16.6c0-5.8,4.7-10.5,10.5-10.5
	c5.8,0,10.5,4.7,10.5,10.5s-4.7,10.5-10.5,10.5C20.1,27.1,15.4,22.4,15.4,16.6z"/>
</svg>
