<?xml version="1.0" encoding="utf-8"?>
<!-- Generator: Adobe Illustrator 19.0.0, SVG Export Plug-In . SVG Version: 6.00 Build 0)  -->
<svg version="1.1" id="图层_1" xmlns="http://www.w3.org/2000/svg" xmlns:xlink="http://www.w3.org/1999/xlink" x="0px" y="0px"
	 viewBox="0 0 53.9 53.9" style="enable-background:new 0 0 53.9 53.9;" xml:space="preserve">
<style type="text/css">
	.st0{fill:#999999;}
</style>
<path id="XMLID_10_" class="st0" d="M50.7,33c-0.6-0.6-1.5-0.6-2.1,0l-5.4,5.4c-0.3-0.5-0.6-1.1-1-1.6c-2.6-3.9-6.4-6.6-10.7-8
	c4.3-2.3,7.2-6.8,7.2-11.9c0-7.4-6.1-13.5-13.5-13.5S11.7,9.4,11.7,16.9c0,5.2,2.9,9.7,7.2,11.9C10.7,31.5,4.7,39.2,4.7,48.3
	c0,0.8,0.7,1.5,1.5,1.5s1.5-0.7,1.5-1.5c0-9.6,7.8-17.5,17.5-17.5c5.8,0,11.2,2.9,14.5,7.7c0.5,0.7,0.9,1.4,1.2,2.1l-5.7,5.7
	L30,41.2c-0.6-0.6-1.5-0.6-2.1,0s-0.6,1.5,0,2.1l6.2,6.2c0.3,0.3,0.7,0.4,1.1,0.4s0.8-0.1,1.1-0.4l5.8-5.8c0.4,1.5,0.6,3,0.6,4.5
	c0,0.8,0.7,1.5,1.5,1.5s1.5-0.7,1.5-1.5c0-2.4-0.4-4.7-1.2-6.9l6.2-6.2C51.3,34.5,51.3,33.6,50.7,33z M14.7,16.9
	c0-5.8,4.7-10.5,10.5-10.5s10.5,4.7,10.5,10.5s-4.7,10.5-10.5,10.5S14.7,22.7,14.7,16.9z"/>
</svg>
