<?xml version="1.0" encoding="utf-8"?>
<!-- Generator: Adobe Illustrator 19.0.0, SVG Export Plug-In . SVG Version: 6.00 Build 0)  -->
<svg version="1.1" id="图层_1" xmlns="http://www.w3.org/2000/svg" xmlns:xlink="http://www.w3.org/1999/xlink" x="0px" y="0px"
	 viewBox="8 -8.6 36.6 36.6" style="enable-background:new 8 -8.6 36.6 36.6;" xml:space="preserve">
<style type="text/css">
	.st0{fill:#808081;}
</style>
<g id="XMLID_499_">
	<path id="XMLID_1161_" class="st0" d="M26.6,27.4C16.9,27.4,9,19.5,9,9.8S16.9-7.8,26.6-7.8S44.3,0.1,44.3,9.8S36.3,27.4,26.6,27.4
		z M26.6-5.8C18-5.8,11,1.2,11,9.8s7,15.6,15.6,15.6s15.6-7,15.6-15.6S35.2-5.8,26.6-5.8z"/>
	<path id="XMLID_1020_" class="st0" d="M36.3,19.9c-0.2,0-0.5-0.1-0.6-0.2l-9.3-7.8c-0.2-0.2-0.4-0.5-0.4-0.8V-2.6c0-0.6,0.4-1,1-1
		s1,0.4,1,1v13.2l8.9,7.5c0.4,0.4,0.5,1,0.1,1.4C36.9,19.8,36.6,19.9,36.3,19.9z"/>
</g>
</svg>
