<?xml version="1.0" encoding="utf-8"?>
<!-- Generator: Adobe Illustrator 19.0.0, SVG Export Plug-In . SVG Version: 6.00 Build 0)  -->
<svg version="1.1" id="图层_1" xmlns="http://www.w3.org/2000/svg" xmlns:xlink="http://www.w3.org/1999/xlink" x="0px" y="0px"
	 viewBox="0 0 60 60" style="enable-background:new 0 0 60 60;" xml:space="preserve">
<path id="XMLID_62_" d="M48.4,30.8C47.1,25.7,45,19.9,41,14.6c0,0,0,0,0,0c0,0,0.2,0,0.2,0c0,0,0-0.1,0-0.1
	c-0.1-0.1-0.1-0.1-0.1-0.2c-0.1,0-0.1-0.1-0.2-0.1c0,0-0.1-0.1-0.1-0.1c0,0,0,0,0,0c-0.1,0-0.1,0-0.2,0c-0.1,0-0.1,0-0.2,0
	c0,0-0.1,0-0.1,0c-0.1,0-0.2,0-0.2,0.1c0,0,0,0,0,0c0,0-0.1,0.1-0.1,0.1c-0.1,0-0.1,0.1-0.2,0.2c0,0.1-0.1,0.1-0.1,0.2
	c0,0,0,0.1-0.1,0.1c-0.6,2.4-1.8,4.7-3.5,6.6c-4.2-5.1-6.5-11.6-6.5-18.3c0-0.6-0.4-1-1-1c-5.6,0-21,20.4-21,36c0,11.6,9.4,21,21,21
	s20.9-9.4,20.9-21C49.5,35.9,49.1,33.4,48.4,30.8z M19.6,48.1c0-6.3,5.5-14,8.1-16c0.3,3.4,1.7,6.5,3.9,9.1c0,0,0,0,0,0c0,0,0,0,0,0
	c0.1,0.1,0.1,0.1,0.2,0.1c0,0,0.1,0.1,0.1,0.1c0.1,0.1,0.3,0.1,0.4,0.1c0.1,0,0.2,0,0.4-0.1c0,0,0.1,0,0.1-0.1
	c0.1,0,0.1-0.1,0.2-0.1c0,0,0,0,0,0c0,0,0,0,0,0c0.7-0.7,1.3-1.5,1.7-2.4c1.1,2,1.9,4.1,2.4,6c0.3,1.2,0.4,2.3,0.4,3.3
	c0,4.6-3.5,8.5-8.1,8.9c-0.3,0-0.6,0-0.9,0c-0.3,0-0.6,0-0.9,0C23.1,56.6,19.6,52.8,19.6,48.1z M37.1,55.1c1.6-1.9,2.5-4.3,2.5-7
	c0-1.2-0.2-2.4-0.5-3.8c-0.7-2.6-2-5.5-3.7-8.3c0,0,0,0,0,0c0,0,0,0,0,0c0,0-0.1-0.1-0.1-0.1c-0.1-0.1-0.1-0.1-0.2-0.2
	c-0.1,0-0.1-0.1-0.2-0.1c0,0-0.1-0.1-0.1-0.1c0,0,0,0,0,0c-0.1,0-0.2,0-0.2,0c-0.1,0-0.1,0-0.2,0c0,0-0.1,0-0.1,0
	c-0.1,0-0.2,0-0.2,0.1c0,0,0,0,0,0c0,0-0.1,0.1-0.1,0.1c-0.1,0-0.1,0.1-0.2,0.2c0,0.1-0.1,0.1-0.1,0.2c0,0,0,0.1-0.1,0.1
	c-0.2,0.9-0.7,1.8-1.2,2.6c-1.8-2.4-2.7-5.3-2.7-8.3c0-0.6-0.4-1-1-1c-3.4,0-11,10.7-11,18.5c0,2.6,0.9,5.1,2.5,7
	c-6.2-3.1-10.5-9.5-10.5-17c0-13.7,12.8-31.5,18-33.7c0.3,7.1,3,13.9,7.7,19.2c0,0,0,0,0,0c0,0,0,0,0,0c0.1,0.1,0.1,0.1,0.2,0.1
	c0,0,0.1,0.1,0.1,0.1c0.1,0.1,0.3,0.1,0.4,0.1c0.1,0,0.2,0,0.4-0.1c0,0,0.1,0,0.1-0.1c0.1,0,0.1-0.1,0.2-0.1c0,0,0,0,0,0
	c0,0,0,0,0,0c1.8-1.8,3.1-3.9,4-6.2c2.7,4.6,4.8,9.5,5.9,13.9c0.6,2.4,0.9,4.7,0.9,6.8C47.6,45.5,43.3,52,37.1,55.1z"/>
</svg>
