<?xml version="1.0" encoding="utf-8"?>
<!-- Generator: Adobe Illustrator 19.0.0, SVG Export Plug-In . SVG Version: 6.00 Build 0)  -->
<svg version="1.1" id="图层_1" xmlns="http://www.w3.org/2000/svg" xmlns:xlink="http://www.w3.org/1999/xlink" x="0px" y="0px"
	 viewBox="0 0 85.5 85.5" style="enable-background:new 0 0 85.5 85.5;" xml:space="preserve">
<style type="text/css">
	.st0{fill-rule:evenodd;clip-rule:evenodd;fill:#FBB03B;}
</style>
<g id="XMLID_40_">
	<path id="XMLID_57_" class="st0" d="M33.7,50.5L33.7,50.5L33.7,50.5c-2.6-2.6-6.2-4.2-10.2-4.2c-4,0-7.6,1.6-10.2,4.2l0,0l0,0l0,0
		c-2.6,2.6-4.2,6.2-4.2,10.2c0,4,1.6,7.6,4.2,10.2l0,0l0,0l0,0c2.6,2.6,6.2,4.2,10.2,4.2c4,0,7.6-1.6,10.2-4.2l0,0l0,0l0,0
		c2.6-2.6,4.2-6.2,4.2-10.2C38,56.7,36.3,53.1,33.7,50.5L33.7,50.5z M32.3,69.4L32.3,69.4C30,71.6,26.9,73,23.5,73
		c-3.4,0-6.5-1.4-8.7-3.6l0,0c-2.2-2.2-3.6-5.3-3.6-8.7c0-3.4,1.4-6.5,3.6-8.7l0,0c2.2-2.2,5.3-3.6,8.7-3.6c3.4,0,6.5,1.4,8.7,3.6
		l0,0c2.2,2.2,3.6,5.3,3.6,8.7C35.9,64.1,34.5,67.2,32.3,69.4z"/>
	<path id="XMLID_58_" class="st0" d="M39.7,19.2l-3.9-3.9c-0.4-0.4-1.1-0.4-1.5,0s-0.4,1.1,0,1.5l2.4,2.4l-11.9,0v0
		c-1,0-2,0.2-2.8,0.5l-0.3,0c-0.8,0.3-1.6,0.8-2.2,1.4l-0.1,0c-0.6,0.6-1.2,1.3-1.5,2.2c-0.3,0.8-0.5,1.5-0.5,2.5h0l0,10.5L15,34
		c-0.4-0.4-1.1-0.4-1.5,0c-0.4,0.4-0.4,1.1,0,1.5l4.2,4.2c0.4,0.4,1.1,0.4,1.5,0l0.1-0.1l4.1-4.1c0.4-0.4,0.4-1.1,0-1.5
		c-0.4-0.4-1.1-0.4-1.5,0l-2.4,2.4l0-10.5h0c0-1,0.1-1.2,0.4-1.7c0.2-0.6,0.6-1,1.1-1.5l0.1,0c0.4-0.4,1-0.8,1.6-1l0.2,0
		c0.6-0.2,1.1-0.3,2.1-0.3v0l11.9,0l-2.4,2.4c-0.4,0.4-0.4,1.1,0,1.5c0.4,0.4,1.1,0.4,1.5,0l3.9-3.9c0.4-0.1,0.7-0.5,0.7-1
		C40.4,19.7,40.1,19.3,39.7,19.2z"/>
	<path id="XMLID_59_" class="st0" d="M23.5,52.4c-2.3,0-4.3,0.9-5.8,2.4l-0.1,0.1c-1.5,1.5-2.4,3.6-2.4,5.9c0,0.6,0.5,1,1,1
		c0.6,0,1-0.5,1-1c0-1.7,0.7-3.3,1.8-4.4l0.1-0.1c1.1-1.1,2.7-1.8,4.3-1.8c0.6,0,1-0.5,1-1C24.6,52.8,24.1,52.4,23.5,52.4z"/>
	<path id="XMLID_62_" class="st0" d="M50.9,33.4L50.9,33.4L50.9,33.4c2.6,2.6,6.2,4.2,10.2,4.2c4,0,7.6-1.6,10.2-4.2l0,0l0,0l0,0
		c2.6-2.6,4.2-6.2,4.2-10.2c0-4-1.6-7.6-4.2-10.2l0,0l0,0l0,0c-2.6-2.6-6.2-4.2-10.2-4.2c-4,0-7.6,1.6-10.2,4.2l0,0l0,0l0,0
		c-2.6,2.6-4.2,6.2-4.2,10.2C46.7,27.1,48.3,30.8,50.9,33.4L50.9,33.4z M52.4,14.5L52.4,14.5c2.2-2.2,5.3-3.6,8.7-3.6
		c3.4,0,6.5,1.4,8.7,3.6l0,0c2.2,2.2,3.6,5.3,3.6,8.7c0,3.4-1.4,6.5-3.6,8.7l0,0c-2.2,2.2-5.3,3.6-8.7,3.6c-3.4,0-6.5-1.4-8.7-3.6
		l0,0c-2.2-2.2-3.6-5.3-3.6-8.7C48.8,19.8,50.2,16.7,52.4,14.5z"/>
	<path id="XMLID_63_" class="st0" d="M53.8,24.2c0.6,0,1-0.5,1-1v0c0-1.7,0.7-3.3,1.9-4.4l0,0c1.1-1.1,2.7-1.9,4.4-1.9h0
		c0.6,0,1-0.4,1-1c0-0.6-0.5-1-1-1h0c-2.3,0-4.4,0.9-5.9,2.4l0,0c-1.5,1.5-2.4,3.6-2.4,5.9v0C52.8,23.7,53.3,24.2,53.8,24.2z"/>
	<path id="XMLID_64_" class="st0" d="M67,44.2c-0.4-0.4-1.1-0.4-1.5,0l-0.1,0.1l-4.1,4.1c-0.4,0.4-0.4,1.1,0,1.5
		c0.4,0.4,1.1,0.4,1.5,0l2.4-2.4l0,10.4h0c0,0-0.1,1.3-0.3,1.8c-0.2,0.6-0.6,1.1-1,1.5l0.1,0c-0.5,0.4-0.9,0.8-1.5,1.1
		c-0.6,0.2-1.6,0.4-1.6,0.4v0l-12.9,0l2.4-2.4c0.4-0.4,0.4-1.1,0-1.5c-0.4-0.4-1.1-0.4-1.5,0l-4.2,4.2c-0.4,0.4-0.4,1.1,0,1.5
		l4.2,4.2c0.4,0.4,1.1,0.4,1.5,0c0.4-0.4,0.4-1.1,0-1.5L48,64.7l12.9,0v0c1,0,1.6-0.1,2.4-0.5c0.8-0.3,1.3-1.4,2-1.4h0l0-0.1l0,0
		c0.6-0.6,1.2-1.4,1.5-2.3c0.3-0.8,0.5-1.6,0.5-2.6h0l0-10.4l2.4,2.4c0.4,0.4,1.1,0.4,1.5,0c0.4-0.4,0.4-1.1,0-1.5L67,44.2z"/>
</g>
</svg>