<?xml version="1.0" encoding="utf-8"?>
<!-- Generator: Adobe Illustrator 19.0.0, SVG Export Plug-In . SVG Version: 6.00 Build 0)  -->
<svg version="1.1" id="图层_1" xmlns="http://www.w3.org/2000/svg" xmlns:xlink="http://www.w3.org/1999/xlink" x="0px" y="0px"
	 viewBox="0 0 45 45" style="enable-background:new 0 0 45 45;" xml:space="preserve">
<style type="text/css">
	.st0{fill:#4D4D4D;}
</style>
<g id="XMLID_6_">
	<path id="XMLID_75_" class="st0" d="M33.3,2.1H13c-2.7,0-4.9,2.2-4.9,4.9v30.3c0,2.7,2.2,4.9,4.9,4.9h20.3c2.7,0,4.9-2.2,4.9-4.9V7
		C38.1,4.3,36,2.1,33.3,2.1z M9.1,12.1C9.1,12.1,9.1,12.1,9.1,12.1h28v21h-28c0,0,0,0,0,0V12.1z M13,3.1h20.2c2.2,0,3.9,1.7,3.9,3.9
		v4.1h-28c0,0,0,0,0,0V7C9.1,4.9,10.9,3.1,13,3.1z M33.2,41.1H13c-2.2,0-3.9-1.7-3.9-3.9v-3.1c0,0,0,0,0,0h28v3.1
		C37.1,39.4,35.4,41.1,33.2,41.1z"/>
	<path id="XMLID_87_" class="st0" d="M23,36c-0.9,0-1.6,0.7-1.6,1.6s0.7,1.6,1.6,1.6s1.6-0.7,1.6-1.6S23.9,36,23,36z M23,38.3
		c-0.4,0-0.7-0.3-0.7-0.7s0.3-0.7,0.7-0.7c0.4,0,0.7,0.3,0.7,0.7S23.3,38.3,23,38.3z"/>
</g>
</svg>
