<?xml version="1.0" encoding="utf-8"?>
<!-- Generator: Adobe Illustrator 19.0.0, SVG Export Plug-In . SVG Version: 6.00 Build 0)  -->
<svg version="1.1" id="图层_1" xmlns="http://www.w3.org/2000/svg" xmlns:xlink="http://www.w3.org/1999/xlink" x="0px" y="0px"
	 viewBox="0 0 45 45" style="enable-background:new 0 0 45 45;" xml:space="preserve">
<style type="text/css">
	.st0{fill:#4D4D4D;}
</style>
<path id="XMLID_75_" class="st0" d="M42.1,9.6c0-0.3-0.2-0.5-0.5-0.5h-37c-0.3,0-0.5,0.2-0.5,0.5v27c0,0.3,0.2,0.5,0.5,0.5h37
	c0.3,0,0.5-0.2,0.5-0.5V9.6z M23,25.2l-17.3-15h34.6L23,25.2z M16.8,21L5.1,35.5V10.9L16.8,21z M17.3,21.6l5.4,4.7
	c0.1,0.1,0.2,0.1,0.3,0.1s0.2,0,0.3-0.1l5.3-4.6l11.6,14.5H5.6L17.3,21.6z M29.6,21l11.5-10v24.5L29.6,21z"/>
</svg>
