<?xml version="1.0" encoding="utf-8"?>
<!-- Generator: Adobe Illustrator 19.0.0, SVG Export Plug-In . SVG Version: 6.00 Build 0)  -->
<svg version="1.1" id="图层_1" xmlns="http://www.w3.org/2000/svg" xmlns:xlink="http://www.w3.org/1999/xlink" x="0px" y="0px"
	 viewBox="0 0 85.5 85.5" style="enable-background:new 0 0 85.5 85.5;" xml:space="preserve">
<style type="text/css">
	.st0{fill:#FBB03B;}
</style>
<g id="XMLID_40_">
	<path id="XMLID_47_" class="st0" d="M80.2,27.8h-75c-1.4,0-2.4,1.2-2.4,2.9v24.3c0,1.6,1,2.8,2.4,2.8h7.6c0.6,0,1-0.4,1-1
		s-0.4-1-1-1H5.2c-0.3,0-0.4-0.7-0.4-0.8V30.7c0-0.4,0.1-0.9,0.4-0.9h75c0.3,0,0.6,0.5,0.6,0.9v24.3c0,0.4-0.3,0.8-0.6,0.8h-5.4
		c-0.6,0-1,0.4-1,1s0.4,1,1,1h5.4c1.5,0,2.6-1.2,2.6-2.8V30.7C82.8,29.2,81.6,27.8,80.2,27.8z"/>
	<path id="XMLID_50_" class="st0" d="M70.8,42.8c-0.6,0-1,0.4-1,1v13c-0.2-0.1-0.3-0.2-0.6-0.2c-8,0-14.6,6.3-15.1,14.2h-22
		c-0.5-7.7-6.7-13.9-14.4-14.2V43.8c0-0.6-0.4-1-1-1s-1,0.4-1,1v28c0,0.6,0.4,1,1,1h54c0.6,0,1-0.4,1-1v-28
		C71.8,43.3,71.4,42.8,70.8,42.8z M17.8,58.6c6.6,0.3,12,5.6,12.4,12.2H17.8V58.6z M56.2,70.8c0.5-6.8,6.2-12.2,13.1-12.2
		c0.2,0,0.4-0.1,0.6-0.2v12.4H56.2z"/>
	<path id="XMLID_52_" class="st0" d="M43.9,55.1c-5.4,0-9.7-4.4-9.7-9.8c0-0.6-0.4-1-1-1s-1,0.4-1,1c0,6.5,5.3,11.8,11.7,11.8
		s11.7-5.3,11.7-11.8l0-0.3c0-0.5-0.5-1.1-1-1.1c0,0,0,0,0,0c-0.6,0-1,0.6-1,1.1l0,0.3C53.7,50.7,49.3,55.1,43.9,55.1z"/>
	<path id="XMLID_53_" class="st0" d="M74.8,47.8c0.6,0,1-0.4,1-1v-8c0-0.6-0.4-1-1-1h-65c-0.6,0-1,0.4-1,1v8c0,0.6,0.4,1,1,1h2
		c0.6,0,1-0.4,1-1s-0.4-1-1-1h-1v-6h63v6c-0.6,0-1,0.4-1,1s0.4,1,1,1H74.8z"/>
</g>
</svg>
